<svg width="353" height="117" viewBox="0 0 353 117" fill="none" xmlns="http://www.w3.org/2000/svg">
<path fill-rule="evenodd" clip-rule="evenodd" d="M0.377341 84.9227C0.727532 85.2131 2.32324 85.3002 6.87423 85.2774C10.1925 85.2605 12.9963 85.3357 13.1051 85.4445C13.2138 85.5532 13.0375 86.0145 12.7134 86.4699C12.3893 86.9249 11.7728 88.2066 11.3435 89.3179C10.3 92.019 10.0325 97.4348 10.7974 100.369C12.2441 105.918 16.2689 110.666 21.206 112.649C27.2546 115.078 36.2188 114.765 44.8729 111.823C49.3931 110.286 53.9476 108.188 57.6125 105.955C58.1013 105.657 58.6654 105.413 58.8663 105.412C59.0671 105.412 62.4286 107.811 66.3361 110.744C70.2439 113.677 73.7079 116.077 74.0341 116.077C75.0939 116.077 75.2405 115.165 75.2405 108.574C75.2405 101.237 75.5584 102.09 71.6853 99.0317C70.3002 97.9379 69.0511 96.9371 68.9095 96.807C68.7679 96.6772 69.3987 95.0602 70.3112 93.2138C73.7227 86.3105 74.8056 81.2531 74.5712 73.3158C74.4483 69.1402 74.2853 67.7118 73.6629 65.3408C70.2952 52.5138 60.3604 42.3058 47.6854 38.6496C40.9559 36.7081 32.5623 36.8803 25.9116 39.0958C14.4605 42.9105 5.20031 52.4732 1.88772 63.9033C0.657908 68.1477 0.23987 71.4291 0.0721817 78.161C-0.0661761 83.716 -0.0267703 84.5874 0.377341 84.9227ZM15.4681 82.8148C19.8111 78.4848 25.5256 76.0803 31.4738 76.0803C38.4012 76.0803 46.391 79.5487 56.231 86.8274C57.496 87.7634 57.5227 87.769 57.9692 87.188C58.2186 86.8633 58.8038 85.7748 59.2695 84.7687C63.353 75.9472 61.9324 65.8708 55.5798 58.5971C50.5675 52.8581 42.0983 49.5662 34.9179 50.5655C24.7097 51.9867 16.6094 59.3165 14.2167 69.2978C13.7145 71.393 13.6203 72.7979 13.6185 78.2226L13.6164 84.6611L15.4681 82.8148ZM24.7005 97.2635C26.2876 100.835 32.4669 101.596 39.9012 99.1357C41.4966 98.6077 42.9136 98.3046 43.3083 98.4071C49.843 96.7223 44.8703 94.3907 37.675 91.2383C33.0902 89.2299 27.7432 89.4314 25.7001 91.6889C24.395 93.1312 23.9548 95.5858 24.7005 97.2635Z" fill="url(#paint0_linear_11_12)"/>
<path d="M96.7472 94.0767L113.989 42.5647H122.861L140.103 94.0767H133.485L117.352 46.285H119.355L103.365 94.0767H96.7472ZM105.046 82.0214V76.0475H131.804V82.0214H105.046ZM147.222 94.0767V41.4916H153.59V94.0767H147.222ZM182.066 95.1498C178.441 95.1498 175.389 94.2555 172.908 92.4669C170.428 90.6545 168.544 88.21 167.256 85.1336C165.992 82.0334 165.36 78.5635 165.36 74.7239C165.36 70.8367 165.992 67.3548 167.256 64.2784C168.544 61.202 170.428 58.7814 172.908 57.0167C175.412 55.2519 178.477 54.3695 182.102 54.3695C185.679 54.3695 188.755 55.2639 191.331 57.0525C193.93 58.8172 195.922 61.2378 197.305 64.3142C198.688 67.3906 199.38 70.8605 199.38 74.7239C199.38 78.5873 198.688 82.0572 197.305 85.1336C195.922 88.21 193.93 90.6545 191.331 92.4669C188.755 94.2555 185.667 95.1498 182.066 95.1498ZM164.287 111.247V55.4427H169.975V83.8816H170.69V111.247H164.287ZM181.279 89.319C183.831 89.319 185.941 88.6751 187.611 87.3873C189.28 86.0995 190.532 84.3586 191.367 82.1645C192.201 79.9467 192.619 77.4664 192.619 74.7239C192.619 72.0052 192.201 69.5489 191.367 67.3548C190.556 65.1608 189.292 63.4199 187.575 62.1321C185.882 60.8443 183.723 60.2004 181.1 60.2004C178.596 60.2004 176.521 60.8205 174.876 62.0606C173.23 63.2768 172.002 64.982 171.191 67.176C170.38 69.3462 169.975 71.8621 169.975 74.7239C169.975 77.538 170.369 80.054 171.156 82.2718C171.966 84.4659 173.206 86.1949 174.876 87.4588C176.545 88.6989 178.68 89.319 181.279 89.319ZM234.73 94.0767V74.7239C234.73 72.8876 234.564 71.1228 234.23 69.4296C233.92 67.7364 233.359 66.2221 232.548 64.8866C231.761 63.5272 230.688 62.4541 229.329 61.6671C227.993 60.8801 226.3 60.4866 224.249 60.4866C222.651 60.4866 221.197 60.7608 219.885 61.3093C218.597 61.834 217.488 62.6448 216.558 63.7419C215.628 64.8389 214.901 66.2221 214.376 67.8914C213.875 69.5369 213.625 71.4806 213.625 73.7223L209.44 72.4345C209.44 68.6903 210.107 65.4828 211.443 62.8118C212.802 60.1169 214.698 58.0541 217.131 56.6232C219.587 55.1685 222.473 54.4411 225.787 54.4411C228.292 54.4411 230.426 54.8346 232.191 55.6216C233.955 56.4086 235.422 57.4579 236.591 58.7695C237.759 60.0573 238.677 61.5121 239.345 63.1337C240.013 64.7316 240.478 66.3652 240.74 68.0345C241.026 69.68 241.169 71.2421 241.169 72.7207V94.0767H234.73ZM207.186 94.0767V42.5647H212.909V71.0036H213.625V94.0767H207.186ZM267.211 95.1498C263.419 95.1498 260.104 94.3151 257.266 92.6458C254.452 90.9526 252.258 88.6035 250.684 85.5987C249.11 82.5699 248.323 79.0404 248.323 75.0101C248.323 70.789 249.098 67.1402 250.649 64.0638C252.199 60.9636 254.357 58.5787 257.123 56.9094C259.914 55.2162 263.181 54.3695 266.925 54.3695C270.812 54.3695 274.115 55.2639 276.834 57.0525C279.576 58.8411 281.627 61.3928 282.987 64.7077C284.37 68.0226 284.966 71.9695 284.775 76.5483H278.336V74.2589C278.265 69.5131 277.299 65.9717 275.439 63.6345C273.579 61.2736 270.812 60.0931 267.14 60.0931C263.205 60.0931 260.212 61.357 258.161 63.8849C256.11 66.4128 255.084 70.0378 255.084 74.7597C255.084 79.3147 256.11 82.8442 258.161 85.3482C260.212 87.8523 263.133 89.1043 266.925 89.1043C269.477 89.1043 271.695 88.52 273.579 87.3515C275.463 86.1829 276.941 84.5016 278.014 82.3076L284.131 84.4182C282.629 87.8285 280.363 90.4756 277.335 92.3596C274.33 94.2197 270.955 95.1498 267.211 95.1498ZM252.938 76.5483V71.4329H281.484V76.5483H252.938ZM292.74 94.0767V55.4427H298.427V64.7792L297.497 63.563C297.95 62.3706 298.535 61.2736 299.25 60.272C299.989 59.2703 300.812 58.4476 301.718 57.8037C302.72 56.9928 303.853 56.3728 305.117 55.9435C306.381 55.5143 307.668 55.2639 308.98 55.1923C310.292 55.0969 311.52 55.1804 312.665 55.4427V61.4167C311.329 61.0589 309.862 60.9636 308.265 61.1305C306.667 61.2974 305.188 61.8817 303.829 62.8833C302.589 63.7657 301.623 64.8389 300.931 66.1028C300.264 67.3668 299.799 68.738 299.536 70.2166C299.274 71.6714 299.143 73.1619 299.143 74.6881V94.0767H292.74ZM324.096 111.247L331.572 90.9287L331.68 96.9384L314.795 55.4427H321.485L334.72 88.8182H332.431L344.844 55.4427H351.319L330.285 111.247H324.096Z" fill="white"/>
<path d="M13.4447 9.85449V9.85449C23.6955 9.85449 32.0053 18.1644 32.0053 28.4151V28.4151V28.4151C21.7546 28.4151 13.4447 20.1052 13.4447 9.85449V9.85449Z" fill="url(#paint1_linear_11_12)"/>
<path d="M67.4204 0V0C51.7272 0 39.0054 12.7219 39.0054 28.4151V28.4151V28.4151C54.6986 28.4151 67.4204 15.6932 67.4204 0V0Z" fill="white"/>
<defs>
<linearGradient id="paint0_linear_11_12" x1="-4.6967e-07" y1="76.6909" x2="75.2468" y2="76.6909" gradientUnits="userSpaceOnUse">
<stop stop-color="#5044E5"/>
<stop offset="1" stop-color="#4D8CEA"/>
</linearGradient>
<linearGradient id="paint1_linear_11_12" x1="22.725" y1="9.85449" x2="22.725" y2="28.4151" gradientUnits="userSpaceOnUse">
<stop stop-color="#5044E5"/>
</linearGradient>
</defs>
</svg>
